<svg width="70" height="70" viewBox="0 0 70 70" fill="none" xmlns="http://www.w3.org/2000/svg">
<circle cx="35" cy="35" r="35" fill="#0277BD"/>
<g clip-path="url(#clip0)">
<path d="M23.125 33.125C21.4025 33.125 20 34.5275 20 36.25V46.25C20 47.9725 21.4025 49.375 23.125 49.375H26.875C27.5788 49.375 28.2262 49.1375 28.75 48.7425V33.125H23.125Z" fill="white"/>
<path d="M50 37.8125C50 37.0613 49.7025 36.3612 49.1862 35.845C49.77 35.2062 50.0675 34.3499 49.9862 33.4587C49.84 31.87 48.4087 30.625 46.7262 30.625H39.005C39.3875 29.4637 40 27.335 40 25.625C40 22.9137 37.6962 20.625 36.25 20.625C34.9512 20.625 34.0237 21.3563 33.9837 21.3863C33.8363 21.505 33.75 21.685 33.75 21.875V26.1137L30.15 33.9125L30 33.9887V47.3862C31.0175 47.8662 32.305 48.125 33.125 48.125H44.5988C45.96 48.125 47.1513 47.2075 47.4312 45.9412C47.575 45.29 47.4912 44.6337 47.205 44.0637C48.1287 43.5987 48.75 42.6475 48.75 41.5625C48.75 41.12 48.6488 40.6962 48.4563 40.3125C49.38 39.8475 50 38.8962 50 37.8125Z" fill="white"/>
</g>
<defs>
<clipPath id="clip0">
<rect width="30" height="30" fill="white" transform="translate(20 20)"/>
</clipPath>
</defs>
</svg>
