<svg width="70" height="70" viewBox="0 0 70 70" fill="none" xmlns="http://www.w3.org/2000/svg">
<circle cx="35" cy="35" r="35" fill="#FD5154"/>
<path d="M44.1874 19.5999C42.0603 19.5999 40.1101 20.2816 38.3911 21.6261C36.7431 22.9152 35.6459 24.557 34.9999 25.7509C34.3539 24.5569 33.2567 22.9152 31.6087 21.6261C29.8897 20.2816 27.9395 19.5999 25.8124 19.5999C19.8764 19.5999 15.3999 24.5105 15.3999 31.0224C15.3999 38.0576 20.9846 42.8709 29.4391 50.1576C30.8748 51.3951 32.5021 52.7977 34.1935 54.2937C34.4165 54.4911 34.7028 54.5999 34.9999 54.5999C35.297 54.5999 35.5833 54.4911 35.8063 54.2938C37.4978 52.7976 39.1251 51.395 40.5616 50.1569C49.0152 42.8709 54.5999 38.0576 54.5999 31.0224C54.5999 24.5105 50.1235 19.5999 44.1874 19.5999Z" fill="white"/>
</svg>
